<svg width="14" height="14" viewBox="0 0 14 14" fill="none" xmlns="http://www.w3.org/2000/svg">
<path d="M2 6.18085C2 5.3583 2.66552 4.69149 3.48649 4.69149H9.80405C10.625 4.69149 11.2905 5.3583 11.2905 6.18085V12.5106C11.2905 13.3332 10.625 14 9.80405 14H3.48649C2.66552 14 2 13.3332 2 12.5106V6.18085Z" fill="url(#paint0_linear_147_9)"/>
<path d="M5.18108 11.0213V0H9.50676C10.5968 0 11.3896 0.253191 11.8851 0.759574C12.3905 1.25603 12.6432 1.96596 12.6432 2.88936C12.6432 3.32624 12.5788 3.71347 12.45 4.05106C12.3311 4.37872 12.1577 4.65177 11.9297 4.87021C11.7018 5.07872 11.4293 5.2227 11.1122 5.30213C11.35 5.3617 11.5779 5.45603 11.7959 5.58511C12.0239 5.71419 12.227 5.88794 12.4054 6.10638C12.5937 6.32482 12.7374 6.59291 12.8365 6.91064C12.9455 7.21844 13 7.57589 13 7.98298C13 8.72766 12.8712 9.3234 12.6135 9.77021C12.3658 10.217 11.9941 10.5397 11.4986 10.7383C11.0131 10.927 10.4135 11.0213 9.7 11.0213H5.18108ZM7.38108 9.04043H9.64054C9.8982 9.04043 10.1212 8.99078 10.3095 8.89149C10.4977 8.7922 10.6414 8.6383 10.7405 8.42979C10.8495 8.22128 10.9041 7.94326 10.9041 7.59574C10.9041 7.3078 10.8495 7.06454 10.7405 6.86596C10.6315 6.66738 10.4829 6.51347 10.2946 6.40426C10.1063 6.29504 9.88829 6.24043 9.64054 6.24043H7.38108V9.04043ZM7.38108 4.54255H9.52162C9.83874 4.54255 10.0865 4.42837 10.2649 4.2C10.4532 3.9617 10.5473 3.6539 10.5473 3.2766C10.5572 2.79007 10.4581 2.45248 10.25 2.26383C10.0419 2.07518 9.78919 1.98085 9.49189 1.98085H7.38108V4.54255Z" fill="#FAFAFA"/>
<defs>
<linearGradient id="paint0_linear_147_9" x1="7.5" y1="0" x2="7.5" y2="14" gradientUnits="userSpaceOnUse">
<stop stop-color="#8677B6"/>
<stop offset="1" stop-color="#675DA6"/>
</linearGradient>
</defs>
</svg>
